<svg version="1.2" xmlns="http://www.w3.org/2000/svg" viewBox="0 0 218 60" width="218" height="60">
	<defs>
		<clipPath clipPathUnits="userSpaceOnUse" id="cp1">
			<path d="m0 0h218v60h-218z"/>
		</clipPath>
		<linearGradient id="g1" x2="1" gradientUnits="userSpaceOnUse" gradientTransform="matrix(0,39,-51.145,0,25.573,0)">
			<stop offset="0" stop-color="#231d89"/>
			<stop offset=".245" stop-color="#a22c82"/>
			<stop offset=".469" stop-color="#e92c79"/>
			<stop offset="1" stop-color="#f9a447"/>
		</linearGradient>
	</defs>
	<style>
		.s0 { fill: #ffffff } 
		.s1 { fill: url(#g1) } 
		.s2 { fill: #292d30 } 
	</style>
	<g id="Clip-Path" clip-path="url(#cp1)">
		<g>
			<path fill-rule="evenodd" class="s0" d="m0.04 30.04l29.7-29.7 29.7 29.7-29.7 29.7z"/>
			<path fill-rule="evenodd" class="s1" d="m42.16 22.93l1.92 1.93-14.12 14.14-12.41-12.43-10.49 10.5-7.06-7.07 29.96-30 21.19 21.21zm-5.7-1.71c0-1.73-0.68-3.39-1.9-4.61q-0.92-0.91-2.11-1.41-1.2-0.49-2.49-0.5-1.3 0.01-2.49 0.5-1.2 0.5-2.11 1.41c-1.22 1.22-1.91 2.88-1.91 4.61 0 1.73 0.69 3.38 1.91 4.61q0.91 0.91 2.11 1.41 1.19 0.49 2.49 0.49 1.29 0 2.49-0.49 1.19-0.5 2.11-1.41c1.22-1.23 1.9-2.88 1.9-4.61z"/>
			<path class="s2" d="m17.55 33.43l-7.07 7.07h0.01l19.47 19.5 29.96-30-8.78-8.79-1.71 9-1.92-1.92-17.55 17.57z"/>
			<path class="s0" d="m80.29 14.23h-7.4v12.95h3.16v-4.92h4.24c1.07-0.01 2.09-0.43 2.84-1.18 0.76-0.76 1.18-1.78 1.18-2.84 0-2.21-1.82-4.01-4.02-4.01zm0 4.88h-4.24v-1.73h4.24c0.46 0 0.85 0.39 0.85 0.86 0 0.48-0.39 0.87-0.85 0.87zm13.93 8.07h3.41l-5.01-12.95h-3.34l-4.98 12.95h3.41l0.61-1.59h5.28l0.62 1.59zm-4.69-4.74l1.42-3.74 1.45 3.74zm21.88-4.2c0-2.21-1.81-4.01-4.02-4.01h-7.39v12.95h3.15v-4.92h3.17l1.92 4.92h3.47l-2.22-5.52c0.58-0.36 1.07-0.86 1.41-1.46 0.33-0.6 0.51-1.28 0.51-1.96zm-4.02 0.87h-4.24v-1.73h4.24q0.35 0.02 0.59 0.27 0.24 0.25 0.24 0.6 0 0.34-0.24 0.59-0.24 0.25-0.59 0.27zm17.85-4.88v3.15h-4.08v9.8h-3.15v-9.8h-4.08v-3.15zm11.49 7.65l-5.06-7.67h-3.47v12.94h3.15v-7.67l5.08 7.7h3.45v-12.91h-3.15zm6.49 5.26h10.14v-3.15h-6.99v-1.72h5.47v-3.15h-5.47v-1.72h6.99v-3.17h-10.14zm24.52-8.91c0-2.21-1.81-4-4.02-4h-7.39v12.95h3.15v-4.93h3.17l1.93 4.93h3.46l-2.22-5.52c0.58-0.36 1.07-0.87 1.41-1.47 0.33-0.6 0.51-1.27 0.51-1.96zm-4.02 0.87h-4.24v-1.72h4.24c0.47 0 0.86 0.39 0.86 0.85 0 0.48-0.39 0.87-0.86 0.87zm11.83-2.33c1.28-0.32 2.7 0.14 3.57 1.13q0.74-0.7 1.45-1.39l1.06-1.02c-1-0.79-2.18-1.33-3.43-1.58-1.21-0.24-2.47-0.22-3.65 0.11-0.97 0.26-1.89 0.71-2.54 1.45-0.62 0.66-0.97 1.52-0.99 2.43 0 0.89 0.32 1.77 0.93 2.42 0.58 0.65 1.37 1.04 2.19 1.32 0.81 0.28 1.67 0.44 2.48 0.72 0.52 0.17 1.06 0.39 1.32 0.96q0.03 0.08 0.05 0.17c0.13 0.87-0.76 1.2-1.5 1.22-1.35 0.04-2.72-0.52-3.69-1.48l-2.54 2.35c1.34 1.26 3.16 1.93 4.99 2.06 1.11 0.07 2.28-0.04 3.32-0.48 1.04-0.45 1.96-1.22 2.46-2.22 0.52-1.02 0.56-2.26 0.04-3.26-0.28-0.56-0.72-1-1.22-1.36q-0.54-0.36-1.13-0.61c-0.97-0.41-2.01-0.63-2.99-0.94-0.42-0.15-0.85-0.3-1.09-0.73l-0.06-0.13c-0.18-0.64 0.43-1.01 0.97-1.14zm16.95 2.81h-4.95v-5.31h-3.15v12.91h3.15v-4.45h4.95v4.45h3.15v-12.92h-3.15v5.32zm7.05 7.56h3.15v-12.91h-3.15zm14.44-12.92h-7.4v12.95h3.15v-4.92h4.25c1.06-0.01 2.08-0.43 2.84-1.18 0.75-0.76 1.18-1.78 1.18-2.84 0-2.21-1.82-4.01-4.02-4.01zm0 4.88h-4.25v-1.73h4.25q0.34 0.02 0.59 0.27 0.23 0.25 0.24 0.6-0.01 0.34-0.24 0.59-0.25 0.25-0.59 0.27zm-128.85 12.89h1.12v9.1h4.88v1.01h-6.01zm17.7 10.12v-10.12h6.21v0.98h-5.13v3.54h4.66v0.98h-4.66v3.61l5.28 0.01v1zm17.37 0l3.68-10.12h1.27l3.66 10.12h-1.13l-1.03-2.89h-4.27l-1.06 2.89zm2.47-3.92h3.66l-1.81-5.11zm17.79-6.19h0.4 0.85q0.49 0 0.91 0.01 2.79 0.03 4.02 1.29 1.23 1.25 1.23 3.68 0 2.56-1.32 3.85-1.32 1.28-4.08 1.28h-2.01zm1.13 0.97v8.18h0.87q1.36 0 2.31-0.4c0.62-0.26 1.13-0.72 1.46-1.31q0.5-0.91 0.5-2.42 0-1.54-0.5-2.42c-0.31-0.58-0.82-1.02-1.44-1.26q-0.94-0.37-2.27-0.37zm18.1 9.14v-10.11h6.21v0.98h-5.12v3.54h4.65v0.98h-4.65v3.61h5.27v1zm25.52 0h-1.17l-1.9-4.48h-2.89v4.48h-1.09v-10.11h3.81q1.59 0 2.42 0.71 0.82 0.7 0.82 1.98 0 0.83-0.31 1.38-0.3 0.55-0.76 0.87-0.44 0.32-0.95 0.49zm-3.67-5.42q1.22 0 1.88-0.47 0.67-0.47 0.67-1.46 0-0.93-0.58-1.39-0.58-0.45-1.62-0.45h-2.64v3.77zm18.66 5.56q-0.92 0-1.78-0.32-0.81-0.3-1.4-0.93-0.56-0.61-0.7-1.52h1.15q0.2 0.91 0.96 1.38 0.77 0.46 1.76 0.46 0.76 0 1.34-0.22 0.59-0.22 0.93-0.62 0.34-0.39 0.34-0.93 0-0.72-0.46-1.16-0.44-0.44-1.31-0.65l-2.04-0.49q-1.11-0.25-1.74-0.86-0.62-0.62-0.63-1.62 0-0.85 0.45-1.5 0.45-0.66 1.24-1.03 0.8-0.37 1.83-0.37 1.19 0 1.99 0.41 0.81 0.41 1.21 1.08 0.42 0.66 0.42 1.4h-1.14q-0.07-0.72-0.42-1.14-0.37-0.43-0.9-0.61-0.56-0.19-1.16-0.19-0.57 0-1.11 0.21-0.55 0.2-0.9 0.61-0.35 0.42-0.35 1.04 0 0.57 0.39 0.94 0.39 0.35 1.42 0.62l1.98 0.48q0.94 0.22 1.45 0.67 0.51 0.46 0.7 1.02 0.2 0.56 0.2 1.12 0 0.75-0.44 1.37-0.43 0.61-1.26 0.98-0.83 0.37-2.02 0.37z"/>
		</g>
	</g>
</svg>